<svg width="22" height="22" viewBox="0 0 22 22" fill="none" xmlns="http://www.w3.org/2000/svg">
<g id="Frame">
<path id="Vector" fill-rule="evenodd" clip-rule="evenodd" d="M10.3112 4.35599C10.5173 4.56225 10.6331 4.84193 10.6331 5.13355C10.6331 5.42516 10.5173 5.70484 10.3112 5.91111L6.32231 9.89998H18.3329C18.6247 9.89998 18.9045 10.0159 19.1107 10.2222C19.317 10.4285 19.4329 10.7082 19.4329 11C19.4329 11.2917 19.317 11.5715 19.1107 11.7778C18.9045 11.9841 18.6247 12.1 18.3329 12.1H6.32231L10.3112 16.0889C10.5088 16.2968 10.6173 16.5738 10.6136 16.8606C10.6099 17.1474 10.4944 17.4215 10.2915 17.6243C10.0887 17.8272 9.81463 17.9427 9.52779 17.9464C9.24095 17.9501 8.96403 17.8416 8.75606 17.644L2.88756 11.7782C2.78528 11.6761 2.70415 11.5548 2.64879 11.4212C2.59343 11.2877 2.56494 11.1445 2.56494 11C2.56494 10.8554 2.59343 10.7123 2.64879 10.5788C2.70415 10.4452 2.78528 10.3239 2.88756 10.2217L8.75468 4.35599C8.96095 4.14985 9.24063 4.03406 9.53224 4.03406C9.82386 4.03406 10.1049 4.14985 10.3112 4.35599Z" fill="black"/>
</g>
</svg>
